<svg width="512" height="512" viewBox="0 0 512 512" fill="none" xmlns="http://www.w3.org/2000/svg">
  <!-- Background circle with gradient -->
  <circle cx="256" cy="256" r="256" fill="url(#bg-gradient)"/>

  <!-- Ghost body -->
  <path
    d="M256 120C195 120 160 155 160 216V360C160 360 170 340 190 340C210 340 220 360 240 360C260 360 270 340 290 340C310 340 320 360 340 360C360 360 370 340 390 340C410 340 420 360 420 360V216C420 155 365 120 256 120Z"
    fill="white"
    opacity="0.95"
  />

  <!-- Left eye -->
  <circle cx="220" cy="230" r="24" fill="#1a1a1a"/>
  <circle cx="225" cy="225" r="8" fill="white" opacity="0.4"/>

  <!-- Right eye -->
  <circle cx="292" cy="230" r="24" fill="#1a1a1a"/>
  <circle cx="297" cy="225" r="8" fill="white" opacity="0.4"/>

  <!-- Smile -->
  <path
    d="M210 270C220 290 235 300 256 300C277 300 292 290 302 270"
    stroke="#1a1a1a"
    stroke-width="12"
    stroke-linecap="round"
    opacity="0.6"
  />

  <!-- Gradient definition -->
  <defs>
    <linearGradient id="bg-gradient" x1="0" y1="0" x2="512" y2="512" gradientUnits="userSpaceOnUse">
      <stop offset="0%" stop-color="#60a5fa"/>
      <stop offset="100%" stop-color="#2563eb"/>
    </linearGradient>
  </defs>
</svg>
